<mxfile host="app.diagrams.net" modified="2021-05-20T07:43:48.922Z" agent="5.0 (X11; Linux x86_64) AppleWebKit/537.36 (KHTML, like Gecko) Chrome/87.0.4280.66 Safari/537.36" etag="DfCEuvlyygIyCwbEaGcu" version="14.6.13" type="github">
  <diagram id="C5RBs43oDa-KdzZeNtuy" name="Page-1">
    <mxGraphModel dx="1780" dy="575" grid="1" gridSize="10" guides="1" tooltips="1" connect="1" arrows="1" fold="1" page="1" pageScale="1" pageWidth="827" pageHeight="1169" math="0" shadow="0">
      <root>
        <mxCell id="WIyWlLk6GJQsqaUBKTNV-0" />
        <mxCell id="WIyWlLk6GJQsqaUBKTNV-1" parent="WIyWlLk6GJQsqaUBKTNV-0" />
        <mxCell id="WIyWlLk6GJQsqaUBKTNV-2" value="" style="rounded=0;html=1;jettySize=auto;orthogonalLoop=1;fontSize=11;endArrow=block;endFill=0;endSize=8;strokeWidth=1;shadow=0;labelBackgroundColor=none;edgeStyle=orthogonalEdgeStyle;" parent="WIyWlLk6GJQsqaUBKTNV-1" source="WIyWlLk6GJQsqaUBKTNV-3" target="WIyWlLk6GJQsqaUBKTNV-6" edge="1">
          <mxGeometry relative="1" as="geometry" />
        </mxCell>
        <mxCell id="WIyWlLk6GJQsqaUBKTNV-3" value="Mulai" style="rounded=1;whiteSpace=wrap;html=1;fontSize=12;glass=0;strokeWidth=1;shadow=0;" parent="WIyWlLk6GJQsqaUBKTNV-1" vertex="1">
          <mxGeometry x="340" y="40" width="120" height="40" as="geometry" />
        </mxCell>
        <mxCell id="WIyWlLk6GJQsqaUBKTNV-5" value="No" style="edgeStyle=orthogonalEdgeStyle;rounded=0;html=1;jettySize=auto;orthogonalLoop=1;fontSize=11;endArrow=block;endFill=0;endSize=8;strokeWidth=1;shadow=0;labelBackgroundColor=none;" parent="WIyWlLk6GJQsqaUBKTNV-1" source="WIyWlLk6GJQsqaUBKTNV-6" target="WIyWlLk6GJQsqaUBKTNV-7" edge="1">
          <mxGeometry y="10" relative="1" as="geometry">
            <mxPoint as="offset" />
          </mxGeometry>
        </mxCell>
        <mxCell id="j1l3r9ePBfa3OkCQweDb-13" style="edgeStyle=orthogonalEdgeStyle;rounded=0;orthogonalLoop=1;jettySize=auto;html=1;exitX=0.5;exitY=1;exitDx=0;exitDy=0;entryX=0.5;entryY=0;entryDx=0;entryDy=0;" edge="1" parent="WIyWlLk6GJQsqaUBKTNV-1" source="WIyWlLk6GJQsqaUBKTNV-6" target="j1l3r9ePBfa3OkCQweDb-12">
          <mxGeometry relative="1" as="geometry" />
        </mxCell>
        <mxCell id="j1l3r9ePBfa3OkCQweDb-14" style="edgeStyle=orthogonalEdgeStyle;rounded=0;orthogonalLoop=1;jettySize=auto;html=1;exitX=0.5;exitY=1;exitDx=0;exitDy=0;entryX=0.5;entryY=0;entryDx=0;entryDy=0;" edge="1" parent="WIyWlLk6GJQsqaUBKTNV-1" source="WIyWlLk6GJQsqaUBKTNV-6" target="j1l3r9ePBfa3OkCQweDb-10">
          <mxGeometry relative="1" as="geometry" />
        </mxCell>
        <mxCell id="j1l3r9ePBfa3OkCQweDb-15" style="edgeStyle=orthogonalEdgeStyle;rounded=0;orthogonalLoop=1;jettySize=auto;html=1;exitX=0.5;exitY=1;exitDx=0;exitDy=0;entryX=0.5;entryY=0;entryDx=0;entryDy=0;" edge="1" parent="WIyWlLk6GJQsqaUBKTNV-1" source="WIyWlLk6GJQsqaUBKTNV-6" target="j1l3r9ePBfa3OkCQweDb-11">
          <mxGeometry relative="1" as="geometry" />
        </mxCell>
        <mxCell id="WIyWlLk6GJQsqaUBKTNV-6" value="Login" style="rhombus;whiteSpace=wrap;html=1;shadow=0;fontFamily=Helvetica;fontSize=12;align=center;strokeWidth=1;spacing=6;spacingTop=-4;" parent="WIyWlLk6GJQsqaUBKTNV-1" vertex="1">
          <mxGeometry x="350" y="130" width="100" height="80" as="geometry" />
        </mxCell>
        <mxCell id="WIyWlLk6GJQsqaUBKTNV-7" value="register" style="rounded=1;whiteSpace=wrap;html=1;fontSize=12;glass=0;strokeWidth=1;shadow=0;" parent="WIyWlLk6GJQsqaUBKTNV-1" vertex="1">
          <mxGeometry x="500" y="150" width="120" height="40" as="geometry" />
        </mxCell>
        <mxCell id="j1l3r9ePBfa3OkCQweDb-17" style="edgeStyle=orthogonalEdgeStyle;rounded=0;orthogonalLoop=1;jettySize=auto;html=1;exitX=0.5;exitY=1;exitDx=0;exitDy=0;entryX=0.5;entryY=0;entryDx=0;entryDy=0;" edge="1" parent="WIyWlLk6GJQsqaUBKTNV-1" source="j1l3r9ePBfa3OkCQweDb-10" target="j1l3r9ePBfa3OkCQweDb-16">
          <mxGeometry relative="1" as="geometry" />
        </mxCell>
        <mxCell id="j1l3r9ePBfa3OkCQweDb-10" value="Mahasiswa" style="rounded=1;whiteSpace=wrap;html=1;" vertex="1" parent="WIyWlLk6GJQsqaUBKTNV-1">
          <mxGeometry x="80" y="260" width="120" height="40" as="geometry" />
        </mxCell>
        <mxCell id="j1l3r9ePBfa3OkCQweDb-61" style="edgeStyle=orthogonalEdgeStyle;rounded=0;orthogonalLoop=1;jettySize=auto;html=1;exitX=0.5;exitY=1;exitDx=0;exitDy=0;" edge="1" parent="WIyWlLk6GJQsqaUBKTNV-1" source="j1l3r9ePBfa3OkCQweDb-11" target="j1l3r9ePBfa3OkCQweDb-56">
          <mxGeometry relative="1" as="geometry" />
        </mxCell>
        <mxCell id="j1l3r9ePBfa3OkCQweDb-11" value="Ka Prodi" style="rounded=1;whiteSpace=wrap;html=1;" vertex="1" parent="WIyWlLk6GJQsqaUBKTNV-1">
          <mxGeometry x="600" y="260" width="120" height="40" as="geometry" />
        </mxCell>
        <mxCell id="j1l3r9ePBfa3OkCQweDb-43" style="edgeStyle=orthogonalEdgeStyle;rounded=0;orthogonalLoop=1;jettySize=auto;html=1;exitX=0.5;exitY=1;exitDx=0;exitDy=0;entryX=0.5;entryY=0;entryDx=0;entryDy=0;" edge="1" parent="WIyWlLk6GJQsqaUBKTNV-1" source="j1l3r9ePBfa3OkCQweDb-12" target="j1l3r9ePBfa3OkCQweDb-42">
          <mxGeometry relative="1" as="geometry" />
        </mxCell>
        <mxCell id="j1l3r9ePBfa3OkCQweDb-12" value="Dosen" style="rounded=1;whiteSpace=wrap;html=1;" vertex="1" parent="WIyWlLk6GJQsqaUBKTNV-1">
          <mxGeometry x="340" y="260" width="120" height="40" as="geometry" />
        </mxCell>
        <mxCell id="j1l3r9ePBfa3OkCQweDb-23" style="edgeStyle=orthogonalEdgeStyle;rounded=0;orthogonalLoop=1;jettySize=auto;html=1;exitX=0.5;exitY=1;exitDx=0;exitDy=0;entryX=0.5;entryY=0;entryDx=0;entryDy=0;" edge="1" parent="WIyWlLk6GJQsqaUBKTNV-1" source="j1l3r9ePBfa3OkCQweDb-16" target="j1l3r9ePBfa3OkCQweDb-20">
          <mxGeometry relative="1" as="geometry" />
        </mxCell>
        <mxCell id="j1l3r9ePBfa3OkCQweDb-16" value="Pilih Kegiatan" style="rounded=1;whiteSpace=wrap;html=1;" vertex="1" parent="WIyWlLk6GJQsqaUBKTNV-1">
          <mxGeometry x="80" y="340" width="120" height="40" as="geometry" />
        </mxCell>
        <mxCell id="j1l3r9ePBfa3OkCQweDb-27" style="edgeStyle=orthogonalEdgeStyle;rounded=0;orthogonalLoop=1;jettySize=auto;html=1;exitX=0.5;exitY=1;exitDx=0;exitDy=0;entryX=0.5;entryY=0;entryDx=0;entryDy=0;" edge="1" parent="WIyWlLk6GJQsqaUBKTNV-1" source="j1l3r9ePBfa3OkCQweDb-20" target="j1l3r9ePBfa3OkCQweDb-24">
          <mxGeometry relative="1" as="geometry" />
        </mxCell>
        <mxCell id="j1l3r9ePBfa3OkCQweDb-20" value="Input Kelengkapan data" style="rounded=0;whiteSpace=wrap;html=1;" vertex="1" parent="WIyWlLk6GJQsqaUBKTNV-1">
          <mxGeometry x="80" y="430" width="120" height="60" as="geometry" />
        </mxCell>
        <mxCell id="j1l3r9ePBfa3OkCQweDb-35" style="edgeStyle=orthogonalEdgeStyle;rounded=0;orthogonalLoop=1;jettySize=auto;html=1;exitX=0.5;exitY=0;exitDx=0;exitDy=0;entryX=0;entryY=0.5;entryDx=0;entryDy=0;" edge="1" parent="WIyWlLk6GJQsqaUBKTNV-1" source="j1l3r9ePBfa3OkCQweDb-21" target="j1l3r9ePBfa3OkCQweDb-20">
          <mxGeometry relative="1" as="geometry" />
        </mxCell>
        <mxCell id="j1l3r9ePBfa3OkCQweDb-36" style="edgeStyle=orthogonalEdgeStyle;rounded=0;orthogonalLoop=1;jettySize=auto;html=1;exitX=0.5;exitY=1;exitDx=0;exitDy=0;entryX=0;entryY=0.5;entryDx=0;entryDy=0;" edge="1" parent="WIyWlLk6GJQsqaUBKTNV-1" source="j1l3r9ePBfa3OkCQweDb-21" target="j1l3r9ePBfa3OkCQweDb-26">
          <mxGeometry relative="1" as="geometry" />
        </mxCell>
        <mxCell id="j1l3r9ePBfa3OkCQweDb-21" value="Acc" style="rounded=1;whiteSpace=wrap;html=1;" vertex="1" parent="WIyWlLk6GJQsqaUBKTNV-1">
          <mxGeometry x="-80" y="600" width="120" height="40" as="geometry" />
        </mxCell>
        <mxCell id="j1l3r9ePBfa3OkCQweDb-29" style="edgeStyle=orthogonalEdgeStyle;rounded=0;orthogonalLoop=1;jettySize=auto;html=1;exitX=0.5;exitY=1;exitDx=0;exitDy=0;entryX=0.5;entryY=0;entryDx=0;entryDy=0;" edge="1" parent="WIyWlLk6GJQsqaUBKTNV-1" source="j1l3r9ePBfa3OkCQweDb-24" target="j1l3r9ePBfa3OkCQweDb-25">
          <mxGeometry relative="1" as="geometry" />
        </mxCell>
        <mxCell id="j1l3r9ePBfa3OkCQweDb-24" value="Input Progres" style="rounded=1;whiteSpace=wrap;html=1;" vertex="1" parent="WIyWlLk6GJQsqaUBKTNV-1">
          <mxGeometry x="80" y="520" width="120" height="40" as="geometry" />
        </mxCell>
        <mxCell id="j1l3r9ePBfa3OkCQweDb-34" style="edgeStyle=orthogonalEdgeStyle;rounded=0;orthogonalLoop=1;jettySize=auto;html=1;exitX=0;exitY=0.5;exitDx=0;exitDy=0;entryX=1;entryY=0.5;entryDx=0;entryDy=0;" edge="1" parent="WIyWlLk6GJQsqaUBKTNV-1" source="j1l3r9ePBfa3OkCQweDb-25" target="j1l3r9ePBfa3OkCQweDb-21">
          <mxGeometry relative="1" as="geometry" />
        </mxCell>
        <mxCell id="j1l3r9ePBfa3OkCQweDb-41" style="edgeStyle=orthogonalEdgeStyle;rounded=0;orthogonalLoop=1;jettySize=auto;html=1;exitX=1;exitY=0.5;exitDx=0;exitDy=0;entryX=1;entryY=0.5;entryDx=0;entryDy=0;" edge="1" parent="WIyWlLk6GJQsqaUBKTNV-1" source="j1l3r9ePBfa3OkCQweDb-25" target="j1l3r9ePBfa3OkCQweDb-39">
          <mxGeometry relative="1" as="geometry" />
        </mxCell>
        <mxCell id="j1l3r9ePBfa3OkCQweDb-25" value="Laporan" style="rounded=1;whiteSpace=wrap;html=1;" vertex="1" parent="WIyWlLk6GJQsqaUBKTNV-1">
          <mxGeometry x="80" y="600" width="120" height="40" as="geometry" />
        </mxCell>
        <mxCell id="j1l3r9ePBfa3OkCQweDb-40" style="edgeStyle=orthogonalEdgeStyle;rounded=0;orthogonalLoop=1;jettySize=auto;html=1;exitX=0.5;exitY=1;exitDx=0;exitDy=0;entryX=0.5;entryY=0;entryDx=0;entryDy=0;" edge="1" parent="WIyWlLk6GJQsqaUBKTNV-1" source="j1l3r9ePBfa3OkCQweDb-26" target="j1l3r9ePBfa3OkCQweDb-39">
          <mxGeometry relative="1" as="geometry" />
        </mxCell>
        <mxCell id="j1l3r9ePBfa3OkCQweDb-26" value="Selesai" style="rounded=1;whiteSpace=wrap;html=1;" vertex="1" parent="WIyWlLk6GJQsqaUBKTNV-1">
          <mxGeometry x="80" y="680" width="120" height="40" as="geometry" />
        </mxCell>
        <mxCell id="j1l3r9ePBfa3OkCQweDb-37" value="No" style="text;html=1;align=center;verticalAlign=middle;resizable=0;points=[];autosize=1;strokeColor=none;" vertex="1" parent="WIyWlLk6GJQsqaUBKTNV-1">
          <mxGeometry x="-15" y="565" width="30" height="20" as="geometry" />
        </mxCell>
        <mxCell id="j1l3r9ePBfa3OkCQweDb-38" value="Yes" style="text;html=1;align=center;verticalAlign=middle;resizable=0;points=[];autosize=1;strokeColor=none;" vertex="1" parent="WIyWlLk6GJQsqaUBKTNV-1">
          <mxGeometry x="-20" y="660" width="40" height="20" as="geometry" />
        </mxCell>
        <mxCell id="j1l3r9ePBfa3OkCQweDb-39" value="Logout" style="rounded=1;whiteSpace=wrap;html=1;" vertex="1" parent="WIyWlLk6GJQsqaUBKTNV-1">
          <mxGeometry x="80" y="760" width="120" height="40" as="geometry" />
        </mxCell>
        <mxCell id="j1l3r9ePBfa3OkCQweDb-48" style="edgeStyle=orthogonalEdgeStyle;rounded=0;orthogonalLoop=1;jettySize=auto;html=1;exitX=0.5;exitY=1;exitDx=0;exitDy=0;entryX=0.5;entryY=0;entryDx=0;entryDy=0;" edge="1" parent="WIyWlLk6GJQsqaUBKTNV-1" source="j1l3r9ePBfa3OkCQweDb-42" target="j1l3r9ePBfa3OkCQweDb-44">
          <mxGeometry relative="1" as="geometry" />
        </mxCell>
        <mxCell id="j1l3r9ePBfa3OkCQweDb-51" style="edgeStyle=orthogonalEdgeStyle;rounded=0;orthogonalLoop=1;jettySize=auto;html=1;exitX=1;exitY=0.5;exitDx=0;exitDy=0;entryX=1;entryY=0.5;entryDx=0;entryDy=0;" edge="1" parent="WIyWlLk6GJQsqaUBKTNV-1" source="j1l3r9ePBfa3OkCQweDb-42" target="j1l3r9ePBfa3OkCQweDb-47">
          <mxGeometry relative="1" as="geometry" />
        </mxCell>
        <mxCell id="j1l3r9ePBfa3OkCQweDb-42" value="Acc" style="rounded=1;whiteSpace=wrap;html=1;" vertex="1" parent="WIyWlLk6GJQsqaUBKTNV-1">
          <mxGeometry x="340" y="340" width="120" height="40" as="geometry" />
        </mxCell>
        <mxCell id="j1l3r9ePBfa3OkCQweDb-52" style="edgeStyle=orthogonalEdgeStyle;rounded=0;orthogonalLoop=1;jettySize=auto;html=1;exitX=0.5;exitY=1;exitDx=0;exitDy=0;entryX=0.5;entryY=0;entryDx=0;entryDy=0;" edge="1" parent="WIyWlLk6GJQsqaUBKTNV-1" source="j1l3r9ePBfa3OkCQweDb-44" target="j1l3r9ePBfa3OkCQweDb-45">
          <mxGeometry relative="1" as="geometry" />
        </mxCell>
        <mxCell id="j1l3r9ePBfa3OkCQweDb-44" value="Monitoring&lt;br&gt;kegiatan" style="rounded=1;whiteSpace=wrap;html=1;" vertex="1" parent="WIyWlLk6GJQsqaUBKTNV-1">
          <mxGeometry x="340" y="420" width="120" height="40" as="geometry" />
        </mxCell>
        <mxCell id="j1l3r9ePBfa3OkCQweDb-53" style="edgeStyle=orthogonalEdgeStyle;rounded=0;orthogonalLoop=1;jettySize=auto;html=1;exitX=0.5;exitY=1;exitDx=0;exitDy=0;entryX=0.5;entryY=0;entryDx=0;entryDy=0;" edge="1" parent="WIyWlLk6GJQsqaUBKTNV-1" source="j1l3r9ePBfa3OkCQweDb-45" target="j1l3r9ePBfa3OkCQweDb-46">
          <mxGeometry relative="1" as="geometry" />
        </mxCell>
        <mxCell id="j1l3r9ePBfa3OkCQweDb-45" value="Cek Aktifitas" style="rounded=1;whiteSpace=wrap;html=1;" vertex="1" parent="WIyWlLk6GJQsqaUBKTNV-1">
          <mxGeometry x="340" y="500" width="120" height="40" as="geometry" />
        </mxCell>
        <mxCell id="j1l3r9ePBfa3OkCQweDb-54" style="edgeStyle=orthogonalEdgeStyle;rounded=0;orthogonalLoop=1;jettySize=auto;html=1;exitX=0.5;exitY=1;exitDx=0;exitDy=0;entryX=0.5;entryY=0;entryDx=0;entryDy=0;" edge="1" parent="WIyWlLk6GJQsqaUBKTNV-1" source="j1l3r9ePBfa3OkCQweDb-46" target="j1l3r9ePBfa3OkCQweDb-47">
          <mxGeometry relative="1" as="geometry" />
        </mxCell>
        <mxCell id="j1l3r9ePBfa3OkCQweDb-69" style="edgeStyle=orthogonalEdgeStyle;rounded=0;orthogonalLoop=1;jettySize=auto;html=1;exitX=0;exitY=0.5;exitDx=0;exitDy=0;entryX=1;entryY=0.5;entryDx=0;entryDy=0;" edge="1" parent="WIyWlLk6GJQsqaUBKTNV-1" source="j1l3r9ePBfa3OkCQweDb-46" target="j1l3r9ePBfa3OkCQweDb-39">
          <mxGeometry relative="1" as="geometry" />
        </mxCell>
        <mxCell id="j1l3r9ePBfa3OkCQweDb-46" value="Revisi Laporan" style="rounded=1;whiteSpace=wrap;html=1;" vertex="1" parent="WIyWlLk6GJQsqaUBKTNV-1">
          <mxGeometry x="340" y="580" width="120" height="40" as="geometry" />
        </mxCell>
        <mxCell id="j1l3r9ePBfa3OkCQweDb-55" style="edgeStyle=orthogonalEdgeStyle;rounded=0;orthogonalLoop=1;jettySize=auto;html=1;exitX=0.5;exitY=1;exitDx=0;exitDy=0;entryX=1;entryY=0.5;entryDx=0;entryDy=0;" edge="1" parent="WIyWlLk6GJQsqaUBKTNV-1" source="j1l3r9ePBfa3OkCQweDb-47" target="j1l3r9ePBfa3OkCQweDb-39">
          <mxGeometry relative="1" as="geometry" />
        </mxCell>
        <mxCell id="j1l3r9ePBfa3OkCQweDb-47" value="Selesai" style="rounded=1;whiteSpace=wrap;html=1;" vertex="1" parent="WIyWlLk6GJQsqaUBKTNV-1">
          <mxGeometry x="340" y="660" width="120" height="40" as="geometry" />
        </mxCell>
        <mxCell id="j1l3r9ePBfa3OkCQweDb-49" value="Yes" style="text;html=1;align=center;verticalAlign=middle;resizable=0;points=[];autosize=1;strokeColor=none;" vertex="1" parent="WIyWlLk6GJQsqaUBKTNV-1">
          <mxGeometry x="394" y="390" width="40" height="20" as="geometry" />
        </mxCell>
        <mxCell id="j1l3r9ePBfa3OkCQweDb-62" style="edgeStyle=orthogonalEdgeStyle;rounded=0;orthogonalLoop=1;jettySize=auto;html=1;exitX=0.5;exitY=1;exitDx=0;exitDy=0;entryX=0.5;entryY=0;entryDx=0;entryDy=0;" edge="1" parent="WIyWlLk6GJQsqaUBKTNV-1" source="j1l3r9ePBfa3OkCQweDb-56" target="j1l3r9ePBfa3OkCQweDb-57">
          <mxGeometry relative="1" as="geometry" />
        </mxCell>
        <mxCell id="j1l3r9ePBfa3OkCQweDb-73" style="edgeStyle=orthogonalEdgeStyle;rounded=0;orthogonalLoop=1;jettySize=auto;html=1;exitX=0;exitY=0.5;exitDx=0;exitDy=0;entryX=0;entryY=0.5;entryDx=0;entryDy=0;" edge="1" parent="WIyWlLk6GJQsqaUBKTNV-1" source="j1l3r9ePBfa3OkCQweDb-56" target="j1l3r9ePBfa3OkCQweDb-59">
          <mxGeometry relative="1" as="geometry" />
        </mxCell>
        <mxCell id="j1l3r9ePBfa3OkCQweDb-56" value="Acc Kegiatan&amp;nbsp;&lt;br&gt;dan dosen" style="rounded=1;whiteSpace=wrap;html=1;" vertex="1" parent="WIyWlLk6GJQsqaUBKTNV-1">
          <mxGeometry x="600" y="340" width="120" height="40" as="geometry" />
        </mxCell>
        <mxCell id="j1l3r9ePBfa3OkCQweDb-64" style="edgeStyle=orthogonalEdgeStyle;rounded=0;orthogonalLoop=1;jettySize=auto;html=1;exitX=0.5;exitY=1;exitDx=0;exitDy=0;" edge="1" parent="WIyWlLk6GJQsqaUBKTNV-1" source="j1l3r9ePBfa3OkCQweDb-57" target="j1l3r9ePBfa3OkCQweDb-58">
          <mxGeometry relative="1" as="geometry" />
        </mxCell>
        <mxCell id="j1l3r9ePBfa3OkCQweDb-57" value="Monitoring&lt;br&gt;kegiatan" style="rounded=1;whiteSpace=wrap;html=1;" vertex="1" parent="WIyWlLk6GJQsqaUBKTNV-1">
          <mxGeometry x="600" y="420" width="120" height="40" as="geometry" />
        </mxCell>
        <mxCell id="j1l3r9ePBfa3OkCQweDb-65" style="edgeStyle=orthogonalEdgeStyle;rounded=0;orthogonalLoop=1;jettySize=auto;html=1;exitX=0.5;exitY=1;exitDx=0;exitDy=0;entryX=0.5;entryY=0;entryDx=0;entryDy=0;" edge="1" parent="WIyWlLk6GJQsqaUBKTNV-1" source="j1l3r9ePBfa3OkCQweDb-58" target="j1l3r9ePBfa3OkCQweDb-59">
          <mxGeometry relative="1" as="geometry" />
        </mxCell>
        <mxCell id="j1l3r9ePBfa3OkCQweDb-72" style="edgeStyle=orthogonalEdgeStyle;rounded=0;orthogonalLoop=1;jettySize=auto;html=1;exitX=1;exitY=0.5;exitDx=0;exitDy=0;entryX=1;entryY=0.5;entryDx=0;entryDy=0;" edge="1" parent="WIyWlLk6GJQsqaUBKTNV-1" source="j1l3r9ePBfa3OkCQweDb-58" target="j1l3r9ePBfa3OkCQweDb-39">
          <mxGeometry relative="1" as="geometry" />
        </mxCell>
        <mxCell id="j1l3r9ePBfa3OkCQweDb-58" value="Evaluasi" style="rounded=1;whiteSpace=wrap;html=1;" vertex="1" parent="WIyWlLk6GJQsqaUBKTNV-1">
          <mxGeometry x="600" y="500" width="120" height="40" as="geometry" />
        </mxCell>
        <mxCell id="j1l3r9ePBfa3OkCQweDb-66" style="edgeStyle=orthogonalEdgeStyle;rounded=0;orthogonalLoop=1;jettySize=auto;html=1;exitX=0.5;exitY=1;exitDx=0;exitDy=0;entryX=1;entryY=0.5;entryDx=0;entryDy=0;" edge="1" parent="WIyWlLk6GJQsqaUBKTNV-1" source="j1l3r9ePBfa3OkCQweDb-59" target="j1l3r9ePBfa3OkCQweDb-39">
          <mxGeometry relative="1" as="geometry" />
        </mxCell>
        <mxCell id="j1l3r9ePBfa3OkCQweDb-59" value="Selesai" style="rounded=1;whiteSpace=wrap;html=1;" vertex="1" parent="WIyWlLk6GJQsqaUBKTNV-1">
          <mxGeometry x="600" y="580" width="120" height="40" as="geometry" />
        </mxCell>
        <mxCell id="j1l3r9ePBfa3OkCQweDb-67" value="Yes" style="text;html=1;align=center;verticalAlign=middle;resizable=0;points=[];autosize=1;strokeColor=none;" vertex="1" parent="WIyWlLk6GJQsqaUBKTNV-1">
          <mxGeometry x="660" y="390" width="40" height="20" as="geometry" />
        </mxCell>
        <mxCell id="j1l3r9ePBfa3OkCQweDb-68" value="No" style="text;html=1;align=center;verticalAlign=middle;resizable=0;points=[];autosize=1;strokeColor=none;" vertex="1" parent="WIyWlLk6GJQsqaUBKTNV-1">
          <mxGeometry x="570" y="340" width="30" height="20" as="geometry" />
        </mxCell>
        <mxCell id="j1l3r9ePBfa3OkCQweDb-74" value="No" style="text;html=1;align=center;verticalAlign=middle;resizable=0;points=[];autosize=1;strokeColor=none;" vertex="1" parent="WIyWlLk6GJQsqaUBKTNV-1">
          <mxGeometry x="460" y="340" width="30" height="20" as="geometry" />
        </mxCell>
      </root>
    </mxGraphModel>
  </diagram>
</mxfile>
